<?xml version="1.0" standalone="no"?>
<!DOCTYPE svg PUBLIC "-//W3C//DTD SVG 20010904//EN"
 "http://www.w3.org/TR/2001/REC-SVG-20010904/DTD/svg10.dtd">
<svg version="1.0" xmlns="http://www.w3.org/2000/svg"
 width="465.000000pt" height="130.000000pt" viewBox="0 0 465.000000 130.000000"
 preserveAspectRatio="xMidYMid meet">

<g transform="translate(0.000000,130.000000) scale(0.100000,-0.100000)"
fill="#000000" stroke="none">
<path d="M150 670 l0 -480 2150 0 2150 0 0 480 0 480 -2150 0 -2150 0 0 -480z
m4270 0 l0 -450 -2120 0 -2120 0 0 450 0 450 2120 0 2120 0 0 -450z"/>
<path d="M270 670 l0 -390 885 0 885 0 0 390 0 390 -885 0 -885 0 0 -390z
m230 87 c30 -15 38 -52 15 -77 -14 -16 -14 -18 0 -23 9 -4 15 -19 15 -41 0
-48 -28 -66 -102 -66 l-58 0 0 110 0 110 53 0 c28 0 63 -6 77 -13z m210 -7 c0
-17 -7 -20 -40 -20 -36 0 -40 -2 -40 -25 0 -22 4 -25 35 -25 28 0 35 -4 35
-20 0 -16 -7 -20 -35 -20 -31 0 -35 -3 -35 -25 0 -22 4 -25 40 -25 33 0 40 -3
40 -20 0 -18 -7 -20 -65 -20 l-65 0 0 110 0 110 65 0 c58 0 65 -2 65 -20z
m159 9 c36 -13 61 -53 61 -99 0 -72 -47 -110 -136 -110 l-44 0 0 110 0 110 44
0 c23 0 57 -5 75 -11z m235 -10 c32 -25 33 -55 5 -86 l-22 -22 25 -33 c41 -55
41 -58 15 -58 -17 0 -32 12 -51 40 -14 22 -33 40 -41 40 -11 0 -15 -11 -15
-40 0 -33 -3 -40 -20 -40 -19 0 -20 7 -20 110 l0 110 49 0 c34 0 56 -6 75 -21z
m241 -3 c26 -27 41 -82 31 -122 -19 -72 -114 -100 -173 -50 -25 22 -28 31 -28
86 0 55 3 64 28 86 39 33 108 34 142 0z m223 16 c7 -5 10 -16 7 -24 -5 -12
-16 -15 -44 -11 -46 6 -66 -14 -66 -67 0 -51 19 -70 67 -70 32 0 39 -3 36 -17
-2 -14 -15 -19 -51 -21 -39 -3 -51 1 -72 22 -21 21 -25 35 -25 81 0 49 4 60
29 86 22 22 39 29 68 29 21 0 44 -4 51 -8z m102 -39 l1 -48 20 27 c47 63 55
70 78 66 22 -3 22 -4 -13 -50 l-36 -47 35 -55 c19 -30 35 -58 35 -61 0 -3 -11
-5 -24 -5 -18 0 -31 11 -51 45 -30 52 -45 51 -45 -6 0 -35 -3 -39 -25 -39
l-25 0 0 110 0 110 25 0 c23 0 25 -4 25 -47z m268 39 c7 -5 10 -16 7 -24 -5
-12 -16 -15 -46 -11 -54 8 -52 -17 4 -54 80 -54 54 -128 -45 -121 -36 2 -44 7
-46 25 -3 20 0 21 32 16 68 -11 85 22 25 47 -85 36 -72 130 19 130 20 0 43 -4
50 -8z"/>
<path d="M420 705 c0 -23 4 -26 28 -23 19 2 27 9 27 23 0 14 -8 21 -27 23 -24
3 -28 0 -28 -23z"/>
<path d="M420 621 c0 -28 3 -31 29 -31 18 0 31 6 35 17 8 20 -1 30 -36 38 -26
7 -28 5 -28 -24z"/>
<path d="M800 660 c0 -67 1 -70 23 -70 33 0 57 30 57 73 0 41 -21 67 -56 67
-23 0 -24 -3 -24 -70z"/>
<path d="M1020 701 c0 -23 5 -31 18 -31 49 1 58 53 9 58 -24 3 -27 0 -27 -27z"/>
<path d="M1230 711 c-5 -11 -10 -34 -10 -51 0 -50 16 -70 55 -70 39 0 55 20
55 70 0 50 -16 70 -55 70 -24 0 -38 -6 -45 -19z"/>
<path d="M2485 801 c-54 -24 -80 -72 -73 -136 14 -118 162 -161 246 -71 59 65
39 170 -41 207 -52 23 -81 23 -132 0z m114 -77 c18 -16 19 -68 1 -88 -16 -21
-74 -20 -95 0 -10 11 -15 29 -13 53 5 56 65 76 107 35z"/>
<path d="M2780 813 c-31 -12 -60 -47 -60 -74 0 -38 28 -67 80 -82 28 -8 46
-19 48 -30 5 -24 -25 -33 -47 -13 -22 20 -81 22 -81 2 0 -69 152 -95 195 -33
35 50 8 97 -70 125 -29 10 -50 24 -50 32 0 21 44 25 51 6 9 -24 74 -22 74 2 0
43 -90 85 -140 65z"/>
<path d="M4150 802 c-30 -14 -35 -23 -38 -55 -4 -49 15 -71 79 -92 49 -17 63
-37 33 -49 -21 -8 -20 -8 -39 11 -10 9 -31 17 -49 16 -25 0 -30 -3 -28 -19 9
-49 73 -78 139 -64 44 10 63 32 63 75 0 43 -17 61 -75 82 -29 11 -50 25 -50
33 0 21 30 24 48 5 18 -17 77 -21 77 -4 0 24 -24 52 -55 65 -45 18 -63 18
-105 -4z"/>
<path d="M2140 680 l0 -130 35 0 35 0 0 50 0 50 40 0 40 0 0 -50 0 -50 40 0
40 0 0 130 0 130 -40 0 -40 0 0 -45 0 -45 -40 0 -40 0 0 45 c0 45 0 45 -35 45
l-35 0 0 -130z"/>
<path d="M2970 680 l0 -130 40 0 c38 0 40 2 40 30 0 26 4 30 38 35 52 9 78 23
91 52 20 43 13 82 -18 114 -28 27 -34 29 -110 29 l-81 0 0 -130z m134 54 c22
-21 4 -54 -29 -54 -22 0 -25 4 -25 35 0 28 4 35 19 35 11 0 27 -7 35 -16z"/>
<path d="M3230 680 l0 -130 35 0 35 0 0 130 0 130 -35 0 -35 0 0 -130z"/>
<path d="M3340 775 c0 -34 1 -35 40 -35 l40 0 0 -95 0 -95 40 0 40 0 0 95 0
95 40 0 c39 0 40 1 40 35 l0 35 -120 0 -120 0 0 -35z"/>
<path d="M3683 793 c-3 -10 -19 -52 -36 -93 -16 -41 -35 -92 -43 -112 l-13
-38 40 0 c32 0 42 4 46 20 4 16 14 20 49 20 33 0 46 -5 54 -20 8 -15 21 -20
49 -20 l39 0 -51 130 -50 130 -39 0 c-28 0 -40 -5 -45 -17z m61 -105 c10 -39
7 -48 -19 -48 -29 0 -28 -2 -14 39 13 37 24 40 33 9z"/>
<path d="M3900 680 l0 -130 90 0 90 0 0 35 0 35 -55 0 -55 0 0 95 0 95 -35 0
-35 0 0 -130z"/>
</g>
</svg>
